<?xml version="1.0" standalone="no"?>
<!DOCTYPE svg PUBLIC "-//W3C//DTD SVG 20010904//EN"
 "http://www.w3.org/TR/2001/REC-SVG-20010904/DTD/svg10.dtd">
<svg version="1.0" xmlns="http://www.w3.org/2000/svg"
 width="1280.000000pt" height="816.000000pt" viewBox="0 0 1280.000000 816.000000"
 preserveAspectRatio="xMidYMid meet">
<metadata>
Created by potrace 1.15, written by Peter Selinger 2001-2017
</metadata>
<g transform="translate(0.000000,816.000000) scale(0.100000,-0.100000)"
fill="#4a1a00" stroke="none">
<path d="M11661 8151 l-45 -6 -112 -440 c-96 -377 -145 -543 -343 -1160 l-232
-720 -350 -351 -351 -351 -241 -150 -242 -150 -426 -162 c-234 -88 -431 -161
-438 -161 -8 0 -154 81 -326 180 l-312 180 -297 613 c-289 595 -299 614 -359
675 -34 34 -67 62 -75 62 -7 0 -34 -11 -61 -25 -96 -48 -162 -164 -300 -528
l-10 -26 -352 221 c-194 121 -385 235 -424 253 l-72 33 -41 -26 c-22 -15 -43
-36 -46 -47 -11 -38 -17 -150 -30 -508 -7 -197 -16 -360 -19 -363 -3 -3 -41 5
-84 20 -48 15 -167 37 -310 57 l-232 32 -138 -36 c-133 -34 -144 -39 -297
-133 -171 -105 -163 -98 -339 -323 -48 -62 -92 -111 -97 -109 -5 2 -99 89
-208 195 -174 168 -207 195 -262 217 -39 16 -72 23 -87 20 -35 -9 -57 -59 -63
-142 l-5 -73 -87 73 c-83 70 -89 73 -130 70 -64 -6 -94 -33 -107 -93 -6 -29
-11 -165 -11 -322 0 -250 -3 -301 -40 -636 -22 -201 -42 -367 -45 -369 -2 -3
-55 33 -117 79 -85 62 -148 121 -256 238 -127 139 -152 173 -228 305 -64 111
-87 161 -91 197 -7 56 -18 63 -27 18 -10 -53 100 -285 217 -454 l96 -140 194
-147 193 -146 11 -59 c6 -32 10 -59 8 -61 -1 -1 -163 108 -360 243 l-358 245
-122 180 c-68 99 -128 194 -135 210 -24 58 -19 23 8 -61 24 -72 43 -104 130
-220 99 -131 110 -142 270 -266 92 -71 255 -191 362 -267 107 -76 196 -139
197 -140 1 -1 -2 -42 -7 -91 -5 -50 -16 -166 -25 -260 -13 -144 -66 -462 -121
-730 -8 -38 -30 -112 -50 -163 -31 -80 -41 -96 -78 -121 -23 -16 -55 -48 -70
-70 -53 -76 -262 -209 -746 -474 -581 -318 -656 -356 -991 -492 -239 -98 -318
-124 -576 -195 l-298 -82 -276 12 c-216 10 -283 10 -312 1 -20 -7 -39 -16 -42
-21 -3 -5 4 -27 15 -50 19 -37 24 -40 63 -41 23 0 151 -8 284 -17 l243 -17
228 50 228 51 459 199 460 200 640 378 640 378 138 137 139 137 -48 -95 -47
-95 -619 -449 -619 -448 -747 -415 -747 -415 -295 -70 c-162 -38 -295 -70
-296 -71 -1 -1 0 -14 3 -28 l5 -25 151 27 c84 15 238 43 342 62 l190 35 578
285 577 286 803 598 c738 551 805 598 839 597 20 -1 39 3 41 10 2 6 60 298
128 649 68 350 127 637 131 637 18 0 378 -195 378 -205 0 -5 5 -27 11 -48 8
-32 19 -42 67 -66 31 -16 76 -32 100 -36 24 -4 45 -12 48 -19 2 -6 0 -42 -5
-79 -9 -62 -7 -72 16 -127 l26 -60 47 0 c26 0 68 -3 93 -6 l46 -7 -107 -121
c-59 -66 -144 -173 -190 -237 l-82 -117 22 -101 c12 -56 24 -101 28 -101 3 0
26 31 51 69 24 39 46 70 49 70 3 1 18 -22 33 -49 24 -43 31 -49 47 -40 10 6
21 14 24 18 2 4 15 80 27 167 19 136 27 170 56 229 19 37 36 66 38 65 2 -2 -3
-119 -11 -259 -49 -926 -75 -1471 -71 -1509 3 -26 -1 -62 -10 -88 -8 -24 -13
-46 -11 -48 2 -2 22 -7 44 -10 l39 -7 481 639 c264 351 495 662 512 691 l33
54 -17 80 c-14 69 -25 95 -80 178 -64 95 -68 99 -222 207 -86 60 -208 140
-271 177 -63 37 -137 86 -165 109 -28 22 -52 42 -54 43 -9 6 22 132 38 155 28
40 80 166 107 259 l24 85 -33 128 -32 127 39 33 c22 17 42 32 46 32 3 0 127
-132 274 -292 l267 -293 52 0 c40 0 67 8 110 31 47 26 61 40 85 86 l27 55 92
-107 c51 -58 92 -112 92 -120 0 -7 -103 -419 -230 -915 l-230 -901 -91 -133
c-89 -130 -97 -138 -362 -376 l-271 -244 -75 -17 c-43 -10 -117 -39 -169 -66
l-93 -48 6 -40 c12 -78 -6 -75 201 -44 144 22 191 32 208 47 365 333 389 359
558 592 l164 226 174 552 c96 304 177 547 181 540 3 -7 50 -229 104 -493 l97
-480 50 -47 50 -47 34 22 c19 12 34 25 34 28 0 3 -24 37 -53 75 -32 41 -56 83
-60 104 -3 19 -24 139 -47 265 -22 127 -61 343 -85 480 l-45 251 109 354 c60
195 120 394 135 443 l27 87 57 0 c45 1 70 7 116 33 l60 32 39 124 c21 68 42
120 46 115 5 -5 184 -242 399 -527 l391 -518 288 -251 c158 -137 297 -256 308
-264 11 -7 296 -128 633 -268 l614 -255 156 30 157 30 64 62 c74 72 133 180
109 202 -7 7 -60 47 -118 89 -93 68 -125 100 -280 284 -96 115 -349 408 -561
652 l-386 445 -480 452 -481 453 -298 216 c-165 119 -305 222 -312 228 -22 21
-4 49 27 41 14 -3 357 -101 762 -217 l735 -212 271 -565 272 -566 788 -568
c433 -312 894 -644 1024 -738 l237 -170 578 -233 579 -233 201 -32 c111 -17
210 -31 221 -31 11 0 44 13 75 30 l55 30 -10 46 c-13 55 -17 57 -152 73 -55 7
-173 23 -262 36 l-162 23 -473 196 c-260 107 -561 238 -669 290 l-195 94 -557
436 c-306 239 -664 526 -794 636 l-236 201 -255 397 c-217 338 -358 578 -347
590 3 3 125 -31 755 -213 785 -226 962 -276 967 -271 3 2 -3 38 -13 79 l-17
75 -386 160 c-397 165 -397 165 -1440 494 -30 9 -39 23 -98 145 -36 73 -64
136 -62 138 2 2 102 -66 221 -151 131 -92 227 -154 240 -154 13 0 346 160 742
354 l718 354 370 364 369 363 260 635 260 635 131 460 131 460 -39 135 c-43
151 -37 145 -133 131z m-3865 -2676 c127 -264 230 -482 228 -484 -3 -4 -671
467 -679 479 -3 4 37 117 88 249 80 209 95 241 112 239 15 -2 70 -108 251
-483z m-1029 250 c164 -108 299 -200 301 -204 3 -8 -304 -679 -316 -693 -6 -6
-228 44 -237 54 -1 1 10 76 26 165 27 148 28 165 15 197 -13 30 -19 35 -63 41
-28 3 -60 2 -77 -5 l-29 -11 7 302 c7 286 9 304 29 331 12 16 27 26 34 24 7
-3 146 -93 310 -201z m959 -679 l420 -299 92 -194 c51 -108 92 -196 90 -197
-3 -3 -1240 376 -1248 381 -2 2 42 143 99 314 75 227 106 307 115 302 7 -5
201 -143 432 -307z m-3365 -363 c168 -167 178 -178 172 -207 -3 -17 -8 -33
-10 -36 -2 -2 -82 74 -178 170 -165 164 -175 177 -175 212 0 21 3 38 7 38 4 0
87 -79 184 -177z m-426 26 c76 -65 94 -86 90 -103 -3 -11 -14 -73 -24 -136
-63 -368 -162 -938 -166 -958 -6 -23 -6 -23 -36 -5 -17 10 -37 26 -46 35 -17
19 -19 -11 27 423 18 167 50 665 50 783 0 23 2 42 5 42 4 0 48 -37 100 -81z
m360 -311 c77 -89 146 -170 153 -180 7 -10 17 -50 21 -90 8 -65 17 -87 79
-197 39 -67 88 -144 108 -170 21 -25 41 -51 46 -57 6 -8 -33 -38 -119 -93
l-128 -81 -45 -87 c-43 -84 -45 -93 -50 -194 l-5 -107 -200 129 c-110 71 -200
132 -199 136 17 127 190 1153 194 1153 3 0 69 -73 145 -162z m-509 -988 c36
-25 44 -37 44 -61 l0 -30 -55 43 c-30 23 -55 51 -55 60 0 25 15 22 66 -12z
m371 -208 c154 -99 181 -120 176 -137 -3 -11 -7 -21 -8 -23 -2 -3 -338 205
-387 238 -4 3 -5 16 -1 28 4 16 11 21 22 17 8 -3 98 -59 198 -123z m-378 64
l35 -36 -21 -92 c-57 -261 -228 -987 -231 -979 -2 5 6 49 18 98 15 64 129 989
130 1056 0 13 33 -9 69 -47z m1182 -751 c41 -14 88 -35 104 -47 102 -74 490
-407 524 -449 43 -54 44 -66 17 -131 -11 -26 -899 -1228 -903 -1224 -2 2 1 50
7 107 5 57 28 313 50 569 22 256 54 613 70 793 17 180 30 346 30 368 0 47 2
47 101 14z"/>
</g>
</svg>
