<?xml version="1.0" standalone="no"?>
<!DOCTYPE svg PUBLIC "-//W3C//DTD SVG 20010904//EN"
 "http://www.w3.org/TR/2001/REC-SVG-20010904/DTD/svg10.dtd">
<svg version="1.0" xmlns="http://www.w3.org/2000/svg"
 width="1280.000000pt" height="816.000000pt" viewBox="0 0 1280.000000 816.000000"
 preserveAspectRatio="xMidYMid meet">
<metadata>
Created by potrace 1.16, written by Peter Selinger 2001-2019
</metadata>
<g transform="translate(0.000000,816.000000) scale(0.100000,-0.100000)"
fill="#4a1a00" stroke="none">
<path d="M1040 8140 c-7 -12 -27 -75 -46 -139 l-33 -117 132 -464 133 -465
259 -633 260 -634 372 -364 371 -364 584 -286 c693 -340 850 -414 876 -414 20
0 156 86 332 210 52 36 101 70 108 74 15 9 -92 -210 -115 -236 -9 -9 -36 -24
-62 -32 -25 -8 -226 -72 -446 -141 -220 -70 -463 -150 -540 -177 -108 -39
-788 -312 -803 -324 -6 -4 -31 -118 -32 -141 0 -14 6 -23 15 -23 8 0 383 105
833 234 451 129 832 238 847 242 l28 7 -43 -79 c-50 -92 -264 -435 -441 -710
l-124 -192 -170 -143 c-220 -186 -525 -431 -1013 -813 -477 -374 -442 -355
-1348 -731 l-392 -163 -262 -36 c-144 -20 -270 -41 -280 -46 -18 -10 -40 -59
-40 -90 0 -24 96 -70 145 -70 22 0 125 13 228 29 l189 30 576 232 577 232
1026 739 1025 738 269 560 c148 308 273 564 279 569 6 4 36 15 66 23 30 9 363
104 740 212 376 108 690 196 697 196 40 0 -17 -49 -297 -252 l-310 -226 -476
-449 c-523 -492 -488 -454 -1350 -1458 -258 -300 -264 -307 -397 -405 -83 -61
-88 -67 -82 -95 9 -45 63 -129 121 -186 l53 -52 143 -28 c79 -16 154 -29 166
-29 21 0 822 329 1150 471 l122 54 289 250 288 250 394 522 c217 287 397 522
400 522 4 1 24 -51 44 -114 l37 -116 51 -26 c34 -18 74 -29 117 -33 l65 -5
132 -430 c72 -236 132 -440 132 -452 1 -22 -151 -891 -170 -976 -7 -28 -30
-74 -60 -114 -27 -37 -49 -73 -49 -80 0 -14 48 -53 64 -53 6 1 33 20 59 43 48
42 49 45 69 143 69 346 171 831 177 842 8 14 92 -235 256 -756 l95 -302 121
-168 c166 -227 234 -307 391 -454 204 -192 220 -205 280 -217 106 -21 244 -41
290 -41 47 0 47 0 53 37 3 21 8 46 10 56 2 13 -13 26 -58 49 -76 38 -173 75
-233 88 -40 9 -76 38 -289 230 -279 252 -308 283 -408 429 l-73 106 -109 425
c-207 816 -345 1365 -345 1381 0 8 39 62 87 118 l86 103 19 -38 c41 -85 112
-127 208 -122 l61 3 252 274 c139 151 259 279 268 284 12 8 25 3 51 -17 l36
-27 -33 -128 -32 -128 27 -89 c27 -90 71 -202 94 -239 19 -30 46 -115 46 -144
-1 -31 -28 -53 -230 -181 -170 -108 -317 -208 -379 -258 -68 -55 -155 -195
-176 -284 -9 -40 -18 -79 -21 -86 -6 -19 75 -131 567 -787 437 -583 462 -615
488 -609 63 14 63 14 57 47 -4 18 -11 129 -16 247 -6 118 -26 522 -45 898 -19
376 -35 688 -35 695 0 17 24 -22 43 -70 9 -24 28 -114 42 -200 19 -115 30
-161 42 -171 23 -17 34 -12 61 29 13 19 27 34 32 34 5 0 26 -24 47 -54 21 -30
43 -56 50 -58 12 -4 23 27 44 134 11 51 10 67 -1 88 -24 44 -172 238 -260 339
-47 53 -86 101 -88 106 -2 6 16 10 41 10 24 0 64 3 89 6 43 6 45 8 67 63 19
49 21 67 15 133 l-7 77 29 6 c106 23 174 66 189 118 8 30 22 45 60 69 72 45
315 171 320 166 3 -2 52 -245 110 -539 157 -795 144 -742 180 -749 17 -4 41
-12 55 -20 40 -20 298 -210 970 -710 l625 -466 580 -286 580 -287 339 -61
c215 -39 342 -58 348 -52 5 5 8 20 6 33 -3 21 -22 27 -293 91 l-290 69 -750
416 -750 416 -616 446 -616 446 -38 75 -37 75 124 -121 123 -122 638 -376 638
-376 458 -199 458 -199 228 -51 229 -51 251 15 c347 22 328 19 348 61 23 47
21 59 -8 72 -30 14 -213 15 -445 2 l-155 -8 -253 69 c-520 143 -844 279 -1457
614 -441 240 -667 371 -788 458 -27 19 -91 76 -143 127 -85 84 -96 100 -125
174 -37 96 -66 227 -119 541 -35 207 -89 681 -79 688 2 2 94 68 204 147 432
310 505 371 610 510 86 114 128 186 149 259 19 64 19 71 6 71 -5 0 -10 -6 -10
-12 0 -7 -58 -100 -129 -206 l-128 -194 -139 -95 c-298 -205 -562 -383 -568
-383 -4 0 -4 11 -1 25 3 14 7 36 10 50 4 17 60 65 200 171 l194 146 90 138
c116 176 212 372 214 436 2 59 -19 72 -29 17 -7 -44 -96 -219 -159 -313 -96
-143 -312 -361 -464 -468 -59 -41 -61 -42 -66 -20 -2 13 -19 147 -36 298 -23
212 -33 360 -43 645 -6 204 -15 377 -20 385 -23 39 -51 60 -92 66 -50 7 -66 0
-157 -79 -32 -27 -59 -48 -61 -46 -2 2 -9 35 -15 74 -19 124 -58 147 -164 97
-49 -23 -105 -70 -259 -216 -109 -102 -200 -186 -202 -186 -2 0 -51 60 -109
133 -134 168 -174 205 -319 295 -139 86 -177 102 -327 142 l-115 29 -205 -30
c-177 -26 -298 -49 -388 -75 -30 -8 -30 -7 -48 436 -9 206 -19 391 -23 410 -6
25 -19 43 -49 63 -38 27 -43 28 -77 17 -47 -15 -555 -321 -787 -473 l-26 -17
-53 132 c-104 262 -174 374 -262 419 -59 30 -77 25 -141 -42 -63 -66 -115
-167 -490 -944 l-164 -340 -119 -69 c-298 -172 -505 -286 -518 -286 -13 0
-615 223 -786 292 -50 20 -182 95 -320 181 l-235 146 -351 353 -351 353 -141
440 c-285 889 -330 1038 -456 1534 -47 183 -87 336 -90 338 -3 3 -34 8 -69 10
-60 5 -66 4 -77 -17z m4252 -2249 c55 -127 158 -415 151 -421 -21 -20 -600
-430 -640 -453 -15 -9 11 49 211 463 185 384 233 473 247 464 6 -3 20 -27 31
-53z m1086 -6 c11 -24 16 -106 27 -440 l5 -161 -64 4 c-59 4 -67 2 -90 -21
-32 -32 -32 -47 -1 -228 14 -79 25 -147 25 -151 0 -5 -68 -23 -206 -53 -18 -4
-28 10 -74 108 -65 138 -260 567 -260 572 0 16 598 405 614 399 8 -3 18 -16
24 -29z m-853 -577 c30 -70 188 -558 182 -564 -14 -14 -1207 -378 -1214 -370
-9 9 160 359 182 378 36 30 820 587 828 587 4 1 14 -14 22 -31z m3095 -494 c0
-21 -36 -63 -167 -195 -161 -163 -182 -178 -183 -130 0 14 328 351 342 351 4
0 8 -12 8 -26z m354 -239 c7 -207 29 -490 57 -761 25 -249 25 -261 -21 -292
-19 -13 -36 -19 -37 -15 -15 44 -191 1108 -186 1118 5 7 44 45 88 83 64 56 81
67 86 54 3 -10 9 -94 13 -187z m-224 -630 l90 -530 -28 -23 c-37 -30 -353
-235 -356 -230 -2 1 -8 49 -13 106 -9 90 -15 113 -51 185 -41 82 -42 82 -141
145 -55 35 -110 71 -123 82 l-23 18 24 33 c113 152 187 295 206 395 9 42 21
84 28 93 6 9 66 78 132 155 66 76 127 147 135 159 14 19 15 19 23 -19 4 -21
48 -277 97 -569z m110 -648 c0 -13 -336 -225 -370 -234 -35 -9 -14 19 44 59
114 79 309 197 317 192 5 -3 9 -11 9 -17z m286 -516 c25 -205 43 -375 41 -377
-3 -4 -40 151 -166 696 l-29 125 46 45 47 45 7 -80 c5 -44 29 -248 54 -454z
m-1212 -283 c9 -68 157 -1800 154 -1804 -8 -7 -861 1149 -890 1206 -10 19 -18
42 -18 52 0 27 66 95 235 241 230 200 338 283 397 305 29 10 60 22 68 25 36
13 49 7 54 -25z"/>
</g>
</svg>
