<?xml version="1.0" standalone="no"?>
<!DOCTYPE svg PUBLIC "-//W3C//DTD SVG 20010904//EN"
 "http://www.w3.org/TR/2001/REC-SVG-20010904/DTD/svg10.dtd">
<svg version="1.0" xmlns="http://www.w3.org/2000/svg"
 width="893.000000pt" height="279.000000pt" viewBox="0 0 893.000000 279.000000"
 preserveAspectRatio="xMidYMid meet">

<g transform="translate(0.000000,279.000000) scale(0.100000,-0.100000)"
fill="#0054A5" stroke="none">
<path d="M90 1360 l0 -1300 1430 0 1430 0 0 1300 0 1300 -1430 0 -1430 0 0
-1300z m1605 975 c185 -32 369 -124 506 -253 74 -70 169 -183 169 -203 0 -5
-13 -9 -29 -9 -22 0 -35 8 -52 33 -33 47 -160 177 -173 177 -6 0 -28 -11 -48
-23 l-37 -23 49 -70 c27 -38 49 -75 50 -81 0 -8 -12 -13 -27 -13 -22 0 -35 10
-62 50 -58 84 -57 84 -137 50 -42 -18 -68 -34 -65 -42 15 -51 14 -58 -12 -58
-17 0 -30 8 -38 23 -6 12 -13 23 -14 24 -5 7 -220 -29 -223 -37 -5 -14 -45
-13 -59 1 -6 6 -42 15 -80 19 -37 4 -87 11 -109 15 -39 7 -42 5 -48 -19 -5
-21 -12 -26 -37 -26 -28 0 -31 3 -25 23 14 43 10 48 -49 73 -33 14 -65 27 -72
30 -6 3 -32 -24 -58 -60 -39 -55 -51 -66 -76 -66 -16 0 -29 4 -29 8 0 5 23 41
50 80 l50 71 -37 26 c-21 14 -43 25 -49 25 -13 0 -140 -131 -173 -177 -17 -25
-30 -33 -52 -33 -16 0 -29 4 -29 9 0 18 90 128 156 192 234 223 551 319 869
264z m677 -546 c133 -28 240 -115 305 -246 38 -76 38 -78 38 -197 0 -115 -1
-124 -32 -189 -19 -40 -56 -92 -89 -128 -75 -78 -151 -116 -265 -131 -228 -30
-417 60 -506 239 -35 70 -38 84 -41 179 -4 84 0 116 17 172 45 149 169 264
321 298 71 16 185 17 252 3z m-1492 -109 l0 -110 -65 0 -65 0 0 -220 0 -219
63 -3 62 -3 3 -107 3 -108 -280 0 c-214 0 -280 3 -284 13 -7 20 -9 171 -1 190
5 13 19 17 65 17 l59 0 0 220 0 220 -60 0 -60 0 -2 38 c-4 92 -5 168 -1 175 2
4 130 7 284 7 l279 0 0 -110z m578 78 c71 -24 71 -24 74 -4 3 19 11 21 101 24
l97 3 0 -156 0 -155 -91 0 -91 0 -39 38 c-75 75 -233 132 -287 103 -15 -8 -22
-21 -22 -40 0 -35 25 -46 193 -92 192 -51 292 -113 341 -211 47 -95 31 -196
-43 -269 -103 -103 -309 -127 -508 -58 -31 10 -58 19 -60 19 -1 0 -3 -11 -3
-25 0 -25 0 -25 -95 -25 -114 0 -107 -12 -103 180 l3 135 93 3 92 3 38 -40
c78 -82 271 -141 315 -96 44 44 11 76 -103 100 -227 47 -383 140 -426 251 -26
67 -16 162 22 216 35 51 99 92 174 113 79 22 236 14 328 -17z m-707 -970 c30
-43 160 -178 171 -178 5 0 26 11 48 25 l40 25 -50 72 c-27 39 -50 75 -50 80 0
4 13 8 29 8 25 0 37 -10 75 -65 45 -62 48 -64 74 -53 15 6 47 19 72 29 45 17
48 23 34 67 -6 19 -3 22 23 22 22 0 33 -7 42 -26 9 -20 17 -25 34 -21 12 3 60
11 107 17 47 6 89 16 95 21 12 12 52 12 57 -1 2 -5 39 -14 83 -20 44 -6 94
-13 111 -16 25 -5 32 -2 42 20 8 18 19 26 37 26 27 0 32 -18 15 -51 -9 -15 -7
-21 7 -25 10 -4 42 -17 72 -30 63 -28 69 -26 122 57 25 40 36 49 60 49 16 0
29 -4 29 -8 0 -11 -58 -103 -82 -129 l-20 -21 38 -26 c21 -14 42 -26 47 -26
14 0 108 93 154 152 36 47 50 58 74 58 16 0 29 -4 29 -9 0 -17 -100 -138 -162
-197 -345 -322 -863 -364 -1253 -101 -33 22 -91 70 -129 106 -66 64 -156 174
-156 192 0 5 13 9 29 9 22 0 35 -8 52 -32z"/>
<path d="M1370 2284 c-54 -10 -56 -15 -10 -38 106 -54 217 -57 320 -10 53 25
54 26 30 37 -25 10 -294 19 -340 11z"/>
<path d="M1175 2229 c-67 -26 -188 -92 -192 -105 -2 -6 12 -19 31 -29 l35 -19
38 32 c21 17 71 54 110 80 93 63 83 82 -22 41z"/>
<path d="M1800 2240 c-16 -10 -18 -9 34 -40 22 -13 66 -45 97 -72 32 -26 61
-48 65 -48 3 0 19 10 36 21 l30 22 -29 19 c-81 55 -213 110 -233 98z"/>
<path d="M1254 2160 c-28 -17 -73 -49 -99 -72 l-47 -41 27 -14 c14 -8 44 -21
66 -28 l39 -14 16 32 c9 18 36 60 60 93 24 34 40 64 37 68 -13 13 -50 4 -99
-24z"/>
<path d="M1702 2182 c-9 -6 2 -31 44 -93 31 -46 60 -86 66 -87 12 -5 118 38
118 48 0 11 -116 97 -162 121 -42 21 -48 22 -66 11z"/>
<path d="M1373 2096 c-45 -61 -77 -116 -71 -120 5 -5 145 -26 167 -26 20 0 21
6 21 99 l0 99 -36 4 c-35 4 -39 1 -81 -56z"/>
<path d="M1557 2143 c-4 -3 -7 -48 -7 -100 0 -107 -10 -100 113 -81 42 6 77
16 77 22 0 16 -36 74 -77 124 -28 34 -41 42 -67 42 -18 0 -36 -3 -39 -7z"/>
<path d="M2204 1571 c-31 -13 -72 -67 -84 -109 -13 -48 -13 -186 1 -235 17
-63 57 -99 115 -104 60 -5 103 18 127 70 26 54 24 270 -3 314 -34 56 -106 85
-156 64z"/>
<path d="M1366 729 c-32 -5 -61 -11 -63 -13 -7 -7 21 -56 70 -122 42 -57 46
-60 81 -56 l36 4 0 99 0 99 -32 -1 c-18 -1 -60 -5 -92 -10z"/>
<path d="M1550 647 c0 -77 3 -96 16 -101 31 -12 61 -6 81 17 30 33 93 130 93
143 0 11 -19 15 -137 30 l-53 7 0 -96z"/>
<path d="M1200 685 c-19 -7 -48 -18 -64 -24 l-29 -12 24 -25 c33 -35 148 -111
181 -119 49 -12 48 4 -5 84 -29 43 -56 85 -62 94 -9 13 -15 13 -45 2z"/>
<path d="M1750 608 c-30 -45 -56 -86 -58 -89 -8 -18 40 -18 75 0 47 23 163
110 163 121 0 9 -92 50 -112 50 -7 0 -38 -37 -68 -82z"/>
<path d="M1007 592 c-15 -9 -26 -21 -24 -27 5 -14 206 -114 245 -121 47 -9 42
16 -10 44 -24 12 -69 45 -101 72 -32 28 -64 50 -70 50 -7 0 -24 -8 -40 -18z"/>
<path d="M1945 573 c-22 -19 -65 -51 -95 -71 -70 -44 -67 -42 -50 -52 8 -5 33
-1 64 11 57 23 196 99 196 109 0 7 -55 40 -67 40 -4 -1 -26 -17 -48 -37z"/>
<path d="M1440 477 c-25 -7 -62 -21 -83 -32 -35 -16 -37 -19 -20 -29 27 -16
269 -20 337 -6 48 10 56 14 45 25 -46 42 -199 65 -279 42z"/>
<path d="M3826 2375 c-59 -16 -113 -58 -143 -111 -28 -49 -32 -158 -7 -210 34
-72 93 -109 253 -160 179 -56 211 -70 211 -88 0 -24 -34 -36 -104 -36 -83 0
-161 33 -202 84 -29 35 -30 36 -101 36 l-73 0 0 -140 0 -140 80 0 c71 0 80 2
80 18 0 30 9 31 62 7 81 -37 177 -51 260 -37 111 19 172 62 208 148 58 135
-26 282 -190 332 -19 6 -75 22 -125 37 -123 36 -143 44 -149 62 -11 28 14 43
68 43 79 0 152 -26 201 -71 41 -38 44 -39 114 -39 l71 0 0 130 0 130 -75 0
c-59 0 -75 -3 -75 -14 0 -24 -18 -28 -45 -10 -62 41 -222 55 -319 29z"/>
<path d="M4665 2375 c-179 -44 -266 -167 -269 -380 -2 -184 62 -296 207 -363
142 -66 356 -46 474 44 159 121 162 499 6 622 -52 41 -98 63 -163 78 -68 16
-188 16 -255 -1z m215 -194 c38 -27 52 -90 47 -211 -5 -131 -19 -164 -79 -181
-48 -13 -100 -7 -133 15 -33 22 -48 99 -44 223 3 84 8 106 25 130 39 52 127
63 184 24z"/>
<path d="M3130 2290 l0 -90 55 0 55 0 0 -205 0 -205 -55 0 -55 0 0 -74 c0 -41
3 -81 6 -90 5 -14 36 -16 240 -16 l234 0 0 90 0 90 -55 0 -55 0 0 205 0 205
55 0 55 0 0 90 0 90 -240 0 -240 0 0 -90z"/>
<path d="M5571 2363 c-13 -3 -45 -26 -72 -53 -57 -57 -72 -104 -67 -207 3 -60
8 -79 33 -114 17 -23 50 -53 75 -66 38 -21 56 -24 117 -21 63 3 76 7 112 36
22 17 42 32 46 32 6 0 3 -15 -21 -114 -28 -116 -109 -176 -197 -145 -34 11
-46 23 -66 62 -22 45 -26 48 -60 45 -34 -3 -36 -5 -33 -33 5 -44 33 -86 80
-119 36 -26 50 -29 114 -30 143 0 218 75 254 253 20 100 15 262 -9 328 -38
103 -111 154 -218 152 -35 -1 -75 -4 -88 -6z m146 -78 c70 -29 88 -67 81 -171
-3 -57 -8 -68 -36 -97 -31 -30 -36 -32 -108 -32 -70 0 -77 2 -100 28 -70 81
-48 228 40 268 50 23 76 23 123 4z"/>
<path d="M6135 2356 c-44 -19 -89 -75 -116 -143 -20 -50 -23 -77 -23 -203 -1
-170 13 -232 70 -298 59 -69 131 -93 216 -72 131 33 198 187 185 425 -3 55
-13 121 -22 146 -20 58 -78 127 -122 145 -41 18 -148 17 -188 0z m187 -93 c44
-42 61 -127 56 -284 -3 -111 -7 -142 -25 -181 -53 -117 -193 -117 -246 0 -18
39 -22 70 -25 179 -4 144 9 216 49 268 48 60 138 69 191 18z"/>
<path d="M6700 2354 c-51 -21 -104 -99 -125 -183 -21 -89 -17 -302 7 -369 59
-159 203 -216 332 -130 60 39 102 123 117 233 12 86 6 224 -13 290 -24 81 -80
148 -139 165 -49 14 -138 11 -179 -6z m179 -82 c48 -36 65 -101 65 -257 1
-171 -11 -221 -65 -270 -33 -29 -46 -35 -86 -35 -41 0 -50 5 -83 39 -41 43
-57 91 -66 204 -10 113 20 263 60 303 48 47 124 54 175 16z"/>
<path d="M7370 2343 c-23 -65 -56 -91 -126 -101 -46 -7 -49 -9 -52 -40 l-3
-32 73 0 c44 0 79 -5 86 -12 9 -9 12 -80 12 -260 l0 -248 39 0 c32 0 40 4 45
23 3 12 6 174 6 360 l0 337 -35 0 c-30 0 -37 -5 -45 -27z"/>
<path d="M4830 1023 c-25 -42 -27 -48 -12 -52 10 -2 31 13 54 40 45 52 46 59
13 59 -19 0 -32 -11 -55 -47z"/>
<path d="M5847 1063 c-4 -3 -7 -46 -7 -94 l0 -88 -35 21 c-27 15 -47 19 -81
15 -78 -8 -114 -63 -114 -176 0 -81 22 -129 70 -154 42 -21 92 -17 132 13 34
25 38 25 38 -1 0 -15 5 -20 23 -17 l22 3 3 243 2 242 -23 0 c-13 0 -27 -3 -30
-7z m-42 -214 c34 -30 35 -33 35 -104 0 -70 -1 -74 -31 -100 -42 -35 -93 -32
-123 8 -17 23 -21 43 -21 97 0 62 3 72 29 99 38 39 66 39 111 0z"/>
<path d="M7202 828 c3 -239 3 -243 24 -246 12 -2 24 4 27 12 3 8 5 117 4 243
l-2 228 -28 3 -27 3 2 -243z"/>
<path d="M7760 975 c0 -52 -3 -95 -6 -95 -3 0 -17 9 -31 20 -29 22 -92 27
-126 9 -74 -40 -99 -173 -52 -273 32 -67 117 -84 184 -36 30 20 30 20 36 0 3
-11 15 -20 26 -20 18 0 19 10 19 245 l0 245 -25 0 c-25 0 -25 0 -25 -95z m-35
-126 c34 -30 35 -34 35 -99 0 -63 -2 -70 -32 -99 -24 -24 -41 -31 -70 -31 -32
0 -41 5 -58 33 -36 59 -20 188 27 216 31 18 61 12 98 -20z"/>
<path d="M8490 975 l0 -95 -32 20 c-47 29 -109 26 -147 -5 -37 -32 -55 -83
-54 -161 0 -64 17 -106 53 -139 31 -28 105 -27 147 3 38 27 43 27 43 2 0 -13
7 -20 20 -20 19 0 19 9 22 228 2 126 2 236 0 245 -2 10 -13 17 -28 17 -24 0
-24 -1 -24 -95z m-35 -126 c34 -30 35 -33 35 -104 0 -69 -2 -75 -31 -99 -60
-51 -129 -24 -144 57 -17 90 22 177 79 177 14 0 41 -14 61 -31z"/>
<path d="M3311 1039 c-110 -22 -171 -106 -171 -235 0 -167 116 -259 281 -225
83 18 83 17 87 128 5 122 2 125 -100 121 -65 -3 -73 -5 -73 -23 0 -17 8 -20
58 -23 l57 -3 0 -69 0 -68 -36 -12 c-139 -46 -255 89 -210 244 30 102 121 148
224 112 26 -10 53 -18 61 -19 23 -3 23 20 1 41 -19 18 -37 23 -115 37 -11 2
-40 -1 -64 -6z"/>
<path d="M4520 1035 c-20 -25 -8 -50 25 -50 21 0 31 5 33 18 4 21 -14 47 -33
47 -7 0 -18 -7 -25 -15z"/>
<path d="M7371 1031 c-7 -13 -6 -23 3 -36 17 -24 50 -15 54 14 6 39 -39 56
-57 22z"/>
<path d="M4288 958 c-3 -39 -6 -43 -30 -46 -20 -2 -28 -9 -28 -23 0 -14 7 -19
30 -19 l30 0 0 -119 c0 -66 3 -127 6 -136 15 -38 100 -58 128 -29 25 25 19 34
-24 34 -53 0 -60 16 -60 144 l0 105 48 3 c34 2 47 7 47 18 0 10 -14 17 -45 20
-45 5 -45 5 -48 48 -3 37 -6 42 -27 42 -21 0 -24 -5 -27 -42z"/>
<path d="M3671 898 c-48 -33 -71 -81 -71 -150 0 -96 33 -150 103 -169 52 -14
134 -2 159 23 29 29 10 40 -42 22 -84 -29 -160 9 -160 80 l0 35 113 3 c110 3
112 3 115 28 6 37 -15 93 -43 120 -38 36 -128 40 -174 8z m136 -40 c15 -14 23
-33 23 -55 l0 -34 -82 3 c-81 3 -83 4 -86 29 -8 65 93 106 145 57z"/>
<path d="M4001 894 c-24 -20 -31 -34 -31 -63 0 -44 22 -68 94 -103 61 -28 74
-47 58 -82 -15 -33 -69 -44 -113 -22 -43 21 -51 20 -47 -6 2 -17 14 -27 43
-36 87 -29 175 13 175 83 0 53 -13 69 -72 95 -29 12 -61 29 -70 38 -21 17 -23
53 -6 70 15 15 82 16 108 2 29 -16 38 10 10 32 -35 28 -111 25 -149 -8z"/>
<path d="M4739 897 c-47 -31 -69 -79 -69 -152 0 -69 21 -118 63 -149 35 -26
127 -28 173 -3 95 50 98 263 5 311 -46 24 -131 21 -172 -7z m146 -40 c50 -43
52 -162 4 -213 -31 -34 -100 -34 -134 0 -48 48 -41 174 12 215 34 28 85 27
118 -2z"/>
<path d="M5166 895 c-44 -30 -46 -30 -46 -5 0 13 -7 20 -20 20 -19 0 -20 -7
-20 -165 l0 -165 25 0 25 0 0 118 c0 116 1 119 28 144 41 40 74 44 107 16 27
-23 28 -29 31 -129 1 -57 3 -114 3 -127 1 -18 6 -23 24 -20 21 3 22 7 25 123
2 75 -2 130 -9 147 -28 69 -106 88 -173 43z"/>
<path d="M6065 901 c-55 -33 -70 -67 -70 -157 0 -73 3 -84 28 -117 33 -44 87
-62 158 -52 51 7 97 35 86 52 -4 6 -26 5 -64 -5 -52 -13 -62 -13 -96 1 -38 16
-57 47 -57 92 0 24 1 24 113 27 l112 3 3 31 c5 46 -22 101 -60 124 -42 26
-113 26 -153 1z m134 -45 c12 -13 23 -36 24 -52 l2 -29 -79 -3 c-44 -2 -83 1
-89 7 -14 14 0 57 25 81 31 28 88 27 117 -4z"/>
<path d="M6604 910 c-55 -22 -89 -104 -81 -193 6 -69 27 -103 78 -130 60 -32
169 -4 169 43 0 23 -17 25 -44 5 -30 -23 -91 -19 -116 7 -27 30 -33 56 -28
130 4 51 9 65 32 85 33 28 68 29 112 3 34 -22 50 -15 39 19 -11 36 -105 54
-161 31z"/>
<path d="M6883 905 c-22 -9 -33 -21 -33 -35 0 -24 8 -25 46 -5 47 24 99 19
124 -12 12 -15 20 -38 18 -52 -3 -24 -7 -26 -68 -31 -92 -8 -140 -41 -140 -98
0 -89 108 -130 185 -70 l26 20 6 -21 c3 -12 13 -21 24 -21 18 0 19 9 19 125 0
142 -13 189 -55 205 -37 14 -114 12 -152 -5z m155 -206 c3 -30 -2 -41 -24 -58
-39 -31 -70 -36 -99 -17 -25 17 -33 57 -17 83 12 19 54 32 97 30 38 -2 40 -4
43 -38z"/>
<path d="M7953 904 c-22 -9 -33 -21 -33 -34 0 -23 15 -25 50 -5 66 38 144 5
138 -58 -3 -32 -4 -32 -68 -38 -100 -8 -132 -34 -132 -106 0 -75 86 -114 162
-74 48 25 50 25 50 6 0 -8 9 -15 20 -15 19 0 20 7 20 141 l0 141 -29 29 c-26
26 -36 29 -88 28 -32 0 -73 -7 -90 -15z m155 -204 c3 -42 -26 -76 -75 -86 -57
-11 -98 61 -55 98 25 22 42 27 87 25 38 -2 40 -4 43 -37z"/>
<path d="M4520 745 l0 -165 25 0 25 0 0 165 0 165 -25 0 -25 0 0 -165z"/>
<path d="M7372 748 c3 -160 3 -163 25 -166 31 -5 34 16 31 183 l-3 140 -28 3
-28 3 3 -163z"/>
</g>
</svg>
